<svg id="visual" viewBox="0 0 900 600" width="900" height="600" xmlns="http://www.w3.org/2000/svg" xmlns:xlink="http://www.w3.org/1999/xlink" version="1.1"><rect x="0" y="0" width="900" height="600" fill="#DBEAFE"></rect><path d="M0 398L9.3 401.3C18.7 404.7 37.3 411.3 56.2 417C75 422.7 94 427.3 112.8 422.8C131.7 418.3 150.3 404.7 169 400.2C187.7 395.7 206.3 400.3 225 406.2C243.7 412 262.3 419 281.2 419.3C300 419.7 319 413.3 337.8 410.7C356.7 408 375.3 409 394 410C412.7 411 431.3 412 450 412.3C468.7 412.7 487.3 412.3 506.2 414C525 415.7 544 419.3 562.8 415.8C581.7 412.3 600.3 401.7 619 404.2C637.7 406.7 656.3 422.3 675 428.7C693.7 435 712.3 432 731.2 429.7C750 427.3 769 425.7 787.8 422.2C806.7 418.7 825.3 413.3 844 407C862.7 400.7 881.3 393.3 890.7 389.7L900 386L900 601L890.7 601C881.3 601 862.7 601 844 601C825.3 601 806.7 601 787.8 601C769 601 750 601 731.2 601C712.3 601 693.7 601 675 601C656.3 601 637.7 601 619 601C600.3 601 581.7 601 562.8 601C544 601 525 601 506.2 601C487.3 601 468.7 601 450 601C431.3 601 412.7 601 394 601C375.3 601 356.7 601 337.8 601C319 601 300 601 281.2 601C262.3 601 243.7 601 225 601C206.3 601 187.7 601 169 601C150.3 601 131.7 601 112.8 601C94 601 75 601 56.2 601C37.3 601 18.7 601 9.3 601L0 601Z" fill="#82b4f7"></path><path d="M0 413L9.3 421.7C18.7 430.3 37.3 447.7 56.2 456C75 464.3 94 463.7 112.8 453.3C131.7 443 150.3 423 169 420.3C187.7 417.7 206.3 432.3 225 440.8C243.7 449.3 262.3 451.7 281.2 452.7C300 453.7 319 453.3 337.8 449.2C356.7 445 375.3 437 394 437.5C412.7 438 431.3 447 450 450.5C468.7 454 487.3 452 506.2 446.7C525 441.3 544 432.7 562.8 429.7C581.7 426.7 600.3 429.3 619 428.8C637.7 428.3 656.3 424.7 675 430.2C693.7 435.7 712.3 450.3 731.2 447C750 443.7 769 422.3 787.8 413.2C806.7 404 825.3 407 844 408C862.7 409 881.3 408 890.7 407.5L900 407L900 601L890.7 601C881.3 601 862.7 601 844 601C825.3 601 806.7 601 787.8 601C769 601 750 601 731.2 601C712.3 601 693.7 601 675 601C656.3 601 637.7 601 619 601C600.3 601 581.7 601 562.8 601C544 601 525 601 506.2 601C487.3 601 468.7 601 450 601C431.3 601 412.7 601 394 601C375.3 601 356.7 601 337.8 601C319 601 300 601 281.2 601C262.3 601 243.7 601 225 601C206.3 601 187.7 601 169 601C150.3 601 131.7 601 112.8 601C94 601 75 601 56.2 601C37.3 601 18.7 601 9.3 601L0 601Z" fill="#78aef6"></path><path d="M0 436L9.3 436.8C18.7 437.7 37.3 439.3 56.2 437C75 434.7 94 428.3 112.8 433.8C131.7 439.3 150.3 456.7 169 459.5C187.7 462.3 206.3 450.7 225 447.5C243.7 444.3 262.3 449.7 281.2 449C300 448.3 319 441.7 337.8 436.3C356.7 431 375.3 427 394 427.8C412.7 428.7 431.3 434.3 450 438.7C468.7 443 487.3 446 506.2 446.5C525 447 544 445 562.8 444.8C581.7 444.7 600.3 446.3 619 449.3C637.7 452.3 656.3 456.7 675 458.7C693.7 460.7 712.3 460.3 731.2 456.7C750 453 769 446 787.8 448.3C806.7 450.7 825.3 462.3 844 466.8C862.7 471.3 881.3 468.7 890.7 467.3L900 466L900 601L890.7 601C881.3 601 862.7 601 844 601C825.3 601 806.7 601 787.8 601C769 601 750 601 731.2 601C712.3 601 693.7 601 675 601C656.3 601 637.7 601 619 601C600.3 601 581.7 601 562.8 601C544 601 525 601 506.2 601C487.3 601 468.7 601 450 601C431.3 601 412.7 601 394 601C375.3 601 356.7 601 337.8 601C319 601 300 601 281.2 601C262.3 601 243.7 601 225 601C206.3 601 187.7 601 169 601C150.3 601 131.7 601 112.8 601C94 601 75 601 56.2 601C37.3 601 18.7 601 9.3 601L0 601Z" fill="#6da8f5"></path><path d="M0 480L9.3 474.5C18.7 469 37.3 458 56.2 459.3C75 460.7 94 474.3 112.8 475.5C131.7 476.7 150.3 465.3 169 465.8C187.7 466.3 206.3 478.7 225 483.8C243.7 489 262.3 487 281.2 482.5C300 478 319 471 337.8 471.2C356.7 471.3 375.3 478.7 394 477.5C412.7 476.3 431.3 466.7 450 459.8C468.7 453 487.3 449 506.2 447.7C525 446.3 544 447.7 562.8 450.8C581.7 454 600.3 459 619 463.3C637.7 467.7 656.3 471.3 675 470.8C693.7 470.3 712.3 465.7 731.2 461.2C750 456.7 769 452.3 787.8 453C806.7 453.7 825.3 459.3 844 465C862.7 470.7 881.3 476.3 890.7 479.2L900 482L900 601L890.7 601C881.3 601 862.7 601 844 601C825.3 601 806.7 601 787.8 601C769 601 750 601 731.2 601C712.3 601 693.7 601 675 601C656.3 601 637.7 601 619 601C600.3 601 581.7 601 562.8 601C544 601 525 601 506.2 601C487.3 601 468.7 601 450 601C431.3 601 412.7 601 394 601C375.3 601 356.7 601 337.8 601C319 601 300 601 281.2 601C262.3 601 243.7 601 225 601C206.3 601 187.7 601 169 601C150.3 601 131.7 601 112.8 601C94 601 75 601 56.2 601C37.3 601 18.7 601 9.3 601L0 601Z" fill="#62a1f4"></path><path d="M0 484L9.3 483.3C18.7 482.7 37.3 481.3 56.2 481.3C75 481.3 94 482.7 112.8 479C131.7 475.3 150.3 466.7 169 468.8C187.7 471 206.3 484 225 487C243.7 490 262.3 483 281.2 480.3C300 477.7 319 479.3 337.8 476C356.7 472.7 375.3 464.3 394 466.2C412.7 468 431.3 480 450 481.7C468.7 483.3 487.3 474.7 506.2 470.7C525 466.7 544 467.3 562.8 465.5C581.7 463.7 600.3 459.3 619 459.2C637.7 459 656.3 463 675 462.7C693.7 462.3 712.3 457.7 731.2 456.7C750 455.7 769 458.3 787.8 463C806.7 467.7 825.3 474.3 844 478.7C862.7 483 881.3 485 890.7 486L900 487L900 601L890.7 601C881.3 601 862.7 601 844 601C825.3 601 806.7 601 787.8 601C769 601 750 601 731.2 601C712.3 601 693.7 601 675 601C656.3 601 637.7 601 619 601C600.3 601 581.7 601 562.8 601C544 601 525 601 506.2 601C487.3 601 468.7 601 450 601C431.3 601 412.7 601 394 601C375.3 601 356.7 601 337.8 601C319 601 300 601 281.2 601C262.3 601 243.7 601 225 601C206.3 601 187.7 601 169 601C150.3 601 131.7 601 112.8 601C94 601 75 601 56.2 601C37.3 601 18.7 601 9.3 601L0 601Z" fill="#569bf3"></path><path d="M0 501L9.3 498.8C18.7 496.7 37.3 492.3 56.2 488.7C75 485 94 482 112.8 481.8C131.7 481.7 150.3 484.3 169 482.7C187.7 481 206.3 475 225 472.2C243.7 469.3 262.3 469.7 281.2 474.7C300 479.7 319 489.3 337.8 489.8C356.7 490.3 375.3 481.7 394 484C412.7 486.3 431.3 499.7 450 502.2C468.7 504.7 487.3 496.3 506.2 494C525 491.7 544 495.3 562.8 492.3C581.7 489.3 600.3 479.7 619 475.7C637.7 471.7 656.3 473.3 675 478.5C693.7 483.7 712.3 492.3 731.2 495.3C750 498.3 769 495.7 787.8 494C806.7 492.3 825.3 491.7 844 487.7C862.7 483.7 881.3 476.3 890.7 472.7L900 469L900 601L890.7 601C881.3 601 862.7 601 844 601C825.3 601 806.7 601 787.8 601C769 601 750 601 731.2 601C712.3 601 693.7 601 675 601C656.3 601 637.7 601 619 601C600.3 601 581.7 601 562.8 601C544 601 525 601 506.2 601C487.3 601 468.7 601 450 601C431.3 601 412.7 601 394 601C375.3 601 356.7 601 337.8 601C319 601 300 601 281.2 601C262.3 601 243.7 601 225 601C206.3 601 187.7 601 169 601C150.3 601 131.7 601 112.8 601C94 601 75 601 56.2 601C37.3 601 18.7 601 9.3 601L0 601Z" fill="#4a95f2"></path><path d="M0 498L9.3 497.8C18.7 497.7 37.3 497.3 56.2 497.2C75 497 94 497 112.8 498.8C131.7 500.7 150.3 504.3 169 502.3C187.7 500.3 206.3 492.7 225 490.3C243.7 488 262.3 491 281.2 497C300 503 319 512 337.8 517.7C356.7 523.3 375.3 525.7 394 526.7C412.7 527.7 431.3 527.3 450 524.5C468.7 521.7 487.3 516.3 506.2 515.2C525 514 544 517 562.8 514.8C581.7 512.7 600.3 505.3 619 505.7C637.7 506 656.3 514 675 517C693.7 520 712.3 518 731.2 512.3C750 506.7 769 497.3 787.8 498.3C806.7 499.3 825.3 510.7 844 514.3C862.7 518 881.3 514 890.7 512L900 510L900 601L890.7 601C881.3 601 862.7 601 844 601C825.3 601 806.7 601 787.8 601C769 601 750 601 731.2 601C712.3 601 693.7 601 675 601C656.3 601 637.7 601 619 601C600.3 601 581.7 601 562.8 601C544 601 525 601 506.2 601C487.3 601 468.7 601 450 601C431.3 601 412.7 601 394 601C375.3 601 356.7 601 337.8 601C319 601 300 601 281.2 601C262.3 601 243.7 601 225 601C206.3 601 187.7 601 169 601C150.3 601 131.7 601 112.8 601C94 601 75 601 56.2 601C37.3 601 18.7 601 9.3 601L0 601Z" fill="#418eeb"></path><path d="M0 538L9.3 532.3C18.7 526.7 37.3 515.3 56.2 510.7C75 506 94 508 112.8 512.7C131.7 517.3 150.3 524.7 169 529C187.7 533.3 206.3 534.7 225 535.5C243.7 536.3 262.3 536.7 281.2 534.5C300 532.3 319 527.7 337.8 526.8C356.7 526 375.3 529 394 526.7C412.7 524.3 431.3 516.7 450 515.2C468.7 513.7 487.3 518.3 506.2 520.5C525 522.7 544 522.3 562.8 519.3C581.7 516.3 600.3 510.7 619 509.8C637.7 509 656.3 513 675 515.3C693.7 517.7 712.3 518.3 731.2 518.2C750 518 769 517 787.8 520.2C806.7 523.3 825.3 530.7 844 529.5C862.7 528.3 881.3 518.7 890.7 513.8L900 509L900 601L890.7 601C881.3 601 862.7 601 844 601C825.3 601 806.7 601 787.8 601C769 601 750 601 731.2 601C712.3 601 693.7 601 675 601C656.3 601 637.7 601 619 601C600.3 601 581.7 601 562.8 601C544 601 525 601 506.2 601C487.3 601 468.7 601 450 601C431.3 601 412.7 601 394 601C375.3 601 356.7 601 337.8 601C319 601 300 601 281.2 601C262.3 601 243.7 601 225 601C206.3 601 187.7 601 169 601C150.3 601 131.7 601 112.8 601C94 601 75 601 56.2 601C37.3 601 18.7 601 9.3 601L0 601Z" fill="#3e87e0"></path><path d="M0 520L9.3 524.2C18.7 528.3 37.3 536.7 56.2 540.3C75 544 94 543 112.8 543.7C131.7 544.3 150.3 546.7 169 544.8C187.7 543 206.3 537 225 536.3C243.7 535.7 262.3 540.3 281.2 539.5C300 538.7 319 532.3 337.8 532C356.7 531.7 375.3 537.3 394 537.7C412.7 538 431.3 533 450 534C468.7 535 487.3 542 506.2 540.5C525 539 544 529 562.8 528.8C581.7 528.7 600.3 538.3 619 541.2C637.7 544 656.3 540 675 535.3C693.7 530.7 712.3 525.3 731.2 528C750 530.7 769 541.3 787.8 544.8C806.7 548.3 825.3 544.7 844 539.5C862.7 534.3 881.3 527.7 890.7 524.3L900 521L900 601L890.7 601C881.3 601 862.7 601 844 601C825.3 601 806.7 601 787.8 601C769 601 750 601 731.2 601C712.3 601 693.7 601 675 601C656.3 601 637.7 601 619 601C600.3 601 581.7 601 562.8 601C544 601 525 601 506.2 601C487.3 601 468.7 601 450 601C431.3 601 412.7 601 394 601C375.3 601 356.7 601 337.8 601C319 601 300 601 281.2 601C262.3 601 243.7 601 225 601C206.3 601 187.7 601 169 601C150.3 601 131.7 601 112.8 601C94 601 75 601 56.2 601C37.3 601 18.7 601 9.3 601L0 601Z" fill="#3b7fd5"></path><path d="M0 545L9.3 545.2C18.7 545.3 37.3 545.7 56.2 548C75 550.3 94 554.7 112.8 556.8C131.7 559 150.3 559 169 557.7C187.7 556.3 206.3 553.7 225 549.8C243.7 546 262.3 541 281.2 541C300 541 319 546 337.8 546.5C356.7 547 375.3 543 394 544.3C412.7 545.7 431.3 552.3 450 556.2C468.7 560 487.3 561 506.2 559.8C525 558.7 544 555.3 562.8 553.7C581.7 552 600.3 552 619 554.3C637.7 556.7 656.3 561.3 675 562.2C693.7 563 712.3 560 731.2 558.8C750 557.7 769 558.3 787.8 556C806.7 553.7 825.3 548.3 844 545C862.7 541.7 881.3 540.3 890.7 539.7L900 539L900 601L890.7 601C881.3 601 862.7 601 844 601C825.3 601 806.7 601 787.8 601C769 601 750 601 731.2 601C712.3 601 693.7 601 675 601C656.3 601 637.7 601 619 601C600.3 601 581.7 601 562.8 601C544 601 525 601 506.2 601C487.3 601 468.7 601 450 601C431.3 601 412.7 601 394 601C375.3 601 356.7 601 337.8 601C319 601 300 601 281.2 601C262.3 601 243.7 601 225 601C206.3 601 187.7 601 169 601C150.3 601 131.7 601 112.8 601C94 601 75 601 56.2 601C37.3 601 18.7 601 9.3 601L0 601Z" fill="#3778ca"></path><path d="M0 574L9.3 571.3C18.7 568.7 37.3 563.3 56.2 563.5C75 563.7 94 569.3 112.8 572.7C131.7 576 150.3 577 169 576.5C187.7 576 206.3 574 225 572.8C243.7 571.7 262.3 571.3 281.2 569.7C300 568 319 565 337.8 563.8C356.7 562.7 375.3 563.3 394 565C412.7 566.7 431.3 569.3 450 569.5C468.7 569.7 487.3 567.3 506.2 565.5C525 563.7 544 562.3 562.8 562.7C581.7 563 600.3 565 619 567.7C637.7 570.3 656.3 573.7 675 573.3C693.7 573 712.3 569 731.2 565.5C750 562 769 559 787.8 559.3C806.7 559.7 825.3 563.3 844 565.3C862.7 567.3 881.3 567.7 890.7 567.8L900 568L900 601L890.7 601C881.3 601 862.7 601 844 601C825.3 601 806.7 601 787.8 601C769 601 750 601 731.2 601C712.3 601 693.7 601 675 601C656.3 601 637.7 601 619 601C600.3 601 581.7 601 562.8 601C544 601 525 601 506.2 601C487.3 601 468.7 601 450 601C431.3 601 412.7 601 394 601C375.3 601 356.7 601 337.8 601C319 601 300 601 281.2 601C262.3 601 243.7 601 225 601C206.3 601 187.7 601 169 601C150.3 601 131.7 601 112.8 601C94 601 75 601 56.2 601C37.3 601 18.7 601 9.3 601L0 601Z" fill="#3471c0"></path><path d="M0 591L9.3 588.3C18.7 585.7 37.3 580.3 56.2 577.3C75 574.3 94 573.7 112.8 576.3C131.7 579 150.3 585 169 587.8C187.7 590.7 206.3 590.3 225 588.5C243.7 586.7 262.3 583.3 281.2 583C300 582.7 319 585.3 337.8 583.7C356.7 582 375.3 576 394 576.5C412.7 577 431.3 584 450 584.5C468.7 585 487.3 579 506.2 578.3C525 577.7 544 582.3 562.8 585C581.7 587.7 600.3 588.3 619 588.8C637.7 589.3 656.3 589.7 675 588.8C693.7 588 712.3 586 731.2 585.2C750 584.3 769 584.7 787.8 582.7C806.7 580.7 825.3 576.3 844 575.2C862.7 574 881.3 576 890.7 577L900 578L900 601L890.7 601C881.3 601 862.7 601 844 601C825.3 601 806.7 601 787.8 601C769 601 750 601 731.2 601C712.3 601 693.7 601 675 601C656.3 601 637.7 601 619 601C600.3 601 581.7 601 562.8 601C544 601 525 601 506.2 601C487.3 601 468.7 601 450 601C431.3 601 412.7 601 394 601C375.3 601 356.7 601 337.8 601C319 601 300 601 281.2 601C262.3 601 243.7 601 225 601C206.3 601 187.7 601 169 601C150.3 601 131.7 601 112.8 601C94 601 75 601 56.2 601C37.3 601 18.7 601 9.3 601L0 601Z" fill="#306ab5"></path></svg>